<mxfile host="Electron" agent="Mozilla/5.0 (Windows NT 10.0; Win64; x64) AppleWebKit/537.36 (KHTML, like Gecko) draw.io/28.0.6 Chrome/138.0.7204.100 Electron/37.2.3 Safari/537.36" version="28.0.6">
  <diagram name="Страница — 1" id="DLxkREHUhG1KeM-ujYf8">
    <mxGraphModel dx="834" dy="514" grid="1" gridSize="10" guides="1" tooltips="1" connect="1" arrows="1" fold="1" page="1" pageScale="1" pageWidth="827" pageHeight="1169" math="0" shadow="0">
      <root>
        <mxCell id="0" />
        <mxCell id="1" parent="0" />
        <mxCell id="pn8d7jZa_BfOE3druCfX-38" value="&lt;font style=&quot;color: rgb(255, 255, 255);&quot;&gt;Необходимо исправить статьи&lt;/font&gt;" style="rounded=1;whiteSpace=wrap;html=1;fillColor=#60a917;fontColor=#ffffff;strokeColor=#2D7600;" vertex="1" parent="1">
          <mxGeometry x="1000" y="460" width="120" height="60" as="geometry" />
        </mxCell>
        <mxCell id="pn8d7jZa_BfOE3druCfX-39" value="&lt;div style=&quot;line-height: 80%;&quot;&gt;&lt;span style=&quot;font-family: &amp;quot;Times New Roman&amp;quot;; font-size: 8px; background-color: transparent; color: light-dark(rgb(255, 255, 255), rgb(18, 18, 18));&quot;&gt;Фаий.txt&amp;nbsp;&lt;/span&gt;&lt;/div&gt;" style="text;html=1;align=center;verticalAlign=middle;resizable=0;points=[];autosize=1;strokeColor=#2D7600;fillColor=#60a917;fontColor=#ffffff;direction=west;perimeterSpacing=0;strokeWidth=2;rounded=1;" vertex="1" parent="1">
          <mxGeometry x="1099" y="432" width="50" height="20" as="geometry" />
        </mxCell>
        <mxCell id="pn8d7jZa_BfOE3druCfX-1" value="&lt;div style=&quot;text-wrap-mode: nowrap; line-height: 9.6px;&quot;&gt;&lt;font&gt;&lt;span&gt;Вы скинули&lt;/span&gt;&lt;/font&gt;&lt;/div&gt;&lt;div style=&quot;text-wrap-mode: nowrap; line-height: 9.6px;&quot;&gt;&lt;font&gt;&lt;span&gt;&amp;nbsp;неподготовленный документ&lt;/span&gt;&lt;/font&gt;&lt;/div&gt;&lt;div style=&quot;text-wrap-mode: nowrap; line-height: 9.6px;&quot;&gt;&lt;font&gt;&lt;span&gt;&amp;nbsp;поменяйте&amp;nbsp; формат файла&lt;/span&gt;&lt;/font&gt;&lt;/div&gt;&lt;div style=&quot;text-wrap-mode: nowrap; line-height: 9.6px;&quot;&gt;&lt;font&gt;&lt;span&gt;&amp;nbsp;или сократите страницы&lt;/span&gt;&lt;/font&gt;&lt;/div&gt;&lt;div style=&quot;text-wrap-mode: nowrap; line-height: 9.6px;&quot;&gt;&lt;font&gt;&lt;span&gt;&amp;nbsp;( максимальное разрешенный&lt;/span&gt;&lt;/font&gt;&lt;/div&gt;&lt;div style=&quot;text-wrap-mode: nowrap; line-height: 9.6px;&quot;&gt;&lt;font&gt;&lt;span&gt;&amp;nbsp;размер файла 5 страниц)&lt;/span&gt;&lt;/font&gt;&lt;/div&gt;" style="rounded=1;whiteSpace=wrap;html=1;strokeColor=#2D7600;strokeWidth=2;align=center;verticalAlign=top;fontFamily=Times New Roman;fontSize=10;fontColor=#ffffff;autosize=1;resizable=0;fillColor=#60a917;gradientColor=none;fontStyle=0;rotation=0;flipH=0;flipV=1;container=0;shadow=0;" vertex="1" parent="1">
          <mxGeometry x="417" y="500" width="152" height="80" as="geometry" />
        </mxCell>
        <mxCell id="pn8d7jZa_BfOE3druCfX-2" value="Start" style="rounded=1;whiteSpace=wrap;html=1;arcSize=0;" vertex="1" parent="1">
          <mxGeometry x="527" y="65" width="50" height="10" as="geometry" />
        </mxCell>
        <mxCell id="pn8d7jZa_BfOE3druCfX-3" value="&lt;div style=&quot;line-height: 80%;&quot;&gt;&lt;font style=&quot;font-size: 8px; line-height: 80%;&quot; face=&quot;Times New Roman&quot;&gt;Скиньте в бота подготовленный&amp;nbsp;&lt;/font&gt;&lt;/div&gt;&lt;div style=&quot;line-height: 80%;&quot;&gt;&lt;font style=&quot;font-size: 8px; line-height: 80%;&quot; face=&quot;Times New Roman&quot;&gt;юридический документ&lt;/font&gt;&lt;div&gt;&lt;font style=&quot;font-size: 8px; line-height: 80%;&quot; face=&quot;Times New Roman&quot;&gt;&amp;nbsp;в формате .docx или .txt&amp;nbsp;&lt;/font&gt;&lt;/div&gt;&lt;div&gt;&lt;font style=&quot;font-size: 8px; line-height: 80%;&quot;&gt;&lt;font face=&quot;Times New Roman&quot;&gt;(документ не должен превышать&lt;/font&gt;&lt;/font&gt;&lt;/div&gt;&lt;div&gt;&lt;font style=&quot;font-size: 8px; line-height: 80%;&quot;&gt;&lt;font face=&quot;Times New Roman&quot;&gt;&amp;nbsp;более пяти страниц)&amp;nbsp;&lt;/font&gt;&lt;font face=&quot;Times New Roman&quot;&gt; &amp;nbsp;&lt;/font&gt;&lt;/font&gt;&lt;/div&gt;&lt;/div&gt;" style="text;html=1;align=center;verticalAlign=middle;resizable=0;points=[];autosize=1;strokeColor=#2D7600;fillColor=#60a917;fontColor=#ffffff;direction=west;perimeterSpacing=0;strokeWidth=2;rounded=1;" vertex="1" parent="1">
          <mxGeometry x="427" y="85" width="130" height="60" as="geometry" />
        </mxCell>
        <mxCell id="pn8d7jZa_BfOE3druCfX-4" style="edgeStyle=orthogonalEdgeStyle;rounded=0;orthogonalLoop=1;jettySize=auto;html=1;fontFamily=Helvetica;fontSize=12;fontColor=#ffffff;autosize=1;resizable=0;" edge="1" parent="1" source="pn8d7jZa_BfOE3druCfX-5" target="pn8d7jZa_BfOE3druCfX-19">
          <mxGeometry relative="1" as="geometry" />
        </mxCell>
        <mxCell id="pn8d7jZa_BfOE3druCfX-30" style="edgeStyle=orthogonalEdgeStyle;rounded=0;orthogonalLoop=1;jettySize=auto;html=1;" edge="1" parent="1" source="pn8d7jZa_BfOE3druCfX-5" target="pn8d7jZa_BfOE3druCfX-29">
          <mxGeometry relative="1" as="geometry">
            <Array as="points">
              <mxPoint x="840" y="145" />
              <mxPoint x="840" y="485" />
            </Array>
          </mxGeometry>
        </mxCell>
        <mxCell id="pn8d7jZa_BfOE3druCfX-5" value="" style="sketch=0;pointerEvents=1;shadow=0;dashed=0;html=1;strokeColor=none;fillColor=#505050;labelPosition=center;verticalLabelPosition=bottom;verticalAlign=top;outlineConnect=0;align=center;shape=mxgraph.office.devices.cell_phone_android_proportional;" vertex="1" parent="1">
          <mxGeometry x="397" y="10" width="210" height="270" as="geometry" />
        </mxCell>
        <mxCell id="pn8d7jZa_BfOE3druCfX-6" style="edgeStyle=orthogonalEdgeStyle;rounded=0;orthogonalLoop=1;jettySize=auto;html=1;fontFamily=Helvetica;fontSize=12;fontColor=#ffffff;autosize=1;resizable=0;" edge="1" parent="1" source="pn8d7jZa_BfOE3druCfX-7" target="pn8d7jZa_BfOE3druCfX-16">
          <mxGeometry relative="1" as="geometry" />
        </mxCell>
        <mxCell id="pn8d7jZa_BfOE3druCfX-7" value="" style="verticalLabelPosition=bottom;verticalAlign=top;html=1;shadow=0;dashed=0;strokeWidth=1;shape=mxgraph.android.keyboard;sketch=0;" vertex="1" parent="1">
          <mxGeometry x="418" y="165" width="170" height="70" as="geometry" />
        </mxCell>
        <mxCell id="pn8d7jZa_BfOE3druCfX-8" value="&lt;font style=&quot;font-size: 8px;&quot;&gt;Пользователь нажимает&lt;/font&gt;&lt;div&gt;&lt;font style=&quot;font-size: 8px;&quot;&gt;&amp;nbsp;кнопку старт&amp;nbsp;&lt;/font&gt;&lt;/div&gt;" style="text;html=1;align=center;verticalAlign=middle;resizable=0;points=[];autosize=1;strokeColor=#2D7600;fillColor=#60a917;fontColor=#ffffff;rounded=1;" vertex="1" parent="1">
          <mxGeometry x="257" y="85" width="110" height="40" as="geometry" />
        </mxCell>
        <mxCell id="pn8d7jZa_BfOE3druCfX-9" style="edgeStyle=orthogonalEdgeStyle;rounded=0;orthogonalLoop=1;jettySize=auto;html=1;fontFamily=Helvetica;fontSize=12;fontColor=#ffffff;autosize=1;resizable=0;" edge="1" parent="1" source="pn8d7jZa_BfOE3druCfX-11" target="pn8d7jZa_BfOE3druCfX-5">
          <mxGeometry relative="1" as="geometry" />
        </mxCell>
        <mxCell id="pn8d7jZa_BfOE3druCfX-10" style="edgeStyle=orthogonalEdgeStyle;rounded=0;orthogonalLoop=1;jettySize=auto;html=1;fontFamily=Helvetica;fontSize=12;fontColor=#ffffff;autosize=1;resizable=0;" edge="1" parent="1" source="pn8d7jZa_BfOE3druCfX-11" target="pn8d7jZa_BfOE3druCfX-12">
          <mxGeometry relative="1" as="geometry" />
        </mxCell>
        <mxCell id="pn8d7jZa_BfOE3druCfX-11" value="" style="sketch=0;pointerEvents=1;shadow=0;dashed=0;html=1;strokeColor=none;fillColor=#505050;labelPosition=center;verticalLabelPosition=bottom;verticalAlign=top;outlineConnect=0;align=center;shape=mxgraph.office.devices.cell_phone_android_proportional;container=0;" vertex="1" parent="1">
          <mxGeometry x="20" y="10" width="210" height="270" as="geometry">
            <mxRectangle x="-827" y="-1135" width="50" height="40" as="alternateBounds" />
          </mxGeometry>
        </mxCell>
        <mxCell id="pn8d7jZa_BfOE3druCfX-12" value="" style="sketch=0;pointerEvents=1;shadow=0;dashed=0;html=1;strokeColor=none;fillColor=#505050;labelPosition=center;verticalLabelPosition=bottom;verticalAlign=top;outlineConnect=0;align=center;shape=mxgraph.office.devices.cell_phone_android_proportional;" vertex="1" parent="1">
          <mxGeometry x="40" y="426" width="210" height="270" as="geometry" />
        </mxCell>
        <mxCell id="pn8d7jZa_BfOE3druCfX-13" value="" style="verticalLabelPosition=bottom;verticalAlign=top;html=1;shadow=0;dashed=0;strokeWidth=1;shape=mxgraph.android.keyboard;sketch=0;" vertex="1" parent="1">
          <mxGeometry x="60" y="575" width="170" height="70" as="geometry" />
        </mxCell>
        <mxCell id="pn8d7jZa_BfOE3druCfX-14" value="Start" style="rounded=1;whiteSpace=wrap;html=1;" vertex="1" parent="1">
          <mxGeometry x="60" y="555" width="170" height="20" as="geometry" />
        </mxCell>
        <mxCell id="pn8d7jZa_BfOE3druCfX-15" value="&lt;font style=&quot;color: light-dark(rgb(255, 255, 255), rgb(255, 255, 255));&quot;&gt;Бот временно не работает&amp;nbsp;&lt;/font&gt;" style="text;html=1;align=center;verticalAlign=middle;resizable=0;points=[];autosize=1;strokeColor=#6F0000;fillColor=light-dark(#a20025, #f9013b);fontFamily=Helvetica;fontSize=12;fontColor=#ffffff;rounded=1;" vertex="1" parent="1">
          <mxGeometry x="132" y="313" width="170" height="30" as="geometry" />
        </mxCell>
        <mxCell id="pn8d7jZa_BfOE3druCfX-16" value="" style="sketch=0;pointerEvents=1;shadow=0;dashed=0;html=1;strokeColor=none;fillColor=#505050;labelPosition=center;verticalLabelPosition=bottom;verticalAlign=top;outlineConnect=0;align=center;shape=mxgraph.office.devices.cell_phone_android_proportional;" vertex="1" parent="1">
          <mxGeometry x="397" y="420" width="210" height="270" as="geometry" />
        </mxCell>
        <mxCell id="pn8d7jZa_BfOE3druCfX-17" value="" style="verticalLabelPosition=bottom;verticalAlign=top;html=1;shadow=0;dashed=0;strokeWidth=1;shape=mxgraph.android.keyboard;sketch=0;" vertex="1" parent="1">
          <mxGeometry x="417" y="580" width="170" height="70" as="geometry" />
        </mxCell>
        <mxCell id="pn8d7jZa_BfOE3druCfX-18" value="&lt;div style=&quot;line-height: 80%;&quot;&gt;&lt;span style=&quot;font-family: &amp;quot;Times New Roman&amp;quot;; font-size: 8px; background-color: transparent; color: light-dark(rgb(255, 255, 255), rgb(18, 18, 18));&quot;&gt;Фаил.txt&amp;nbsp;&lt;/span&gt;&lt;/div&gt;" style="text;html=1;align=center;verticalAlign=middle;resizable=0;points=[];autosize=1;strokeColor=#2D7600;fillColor=#60a917;fontColor=#ffffff;direction=west;perimeterSpacing=0;strokeWidth=2;rounded=1;" vertex="1" parent="1">
          <mxGeometry x="1124" y="48" width="48" height="32" as="geometry" />
        </mxCell>
        <mxCell id="pn8d7jZa_BfOE3druCfX-19" value="" style="sketch=0;pointerEvents=1;shadow=0;dashed=0;html=1;strokeColor=none;fillColor=#505050;labelPosition=center;verticalLabelPosition=bottom;verticalAlign=top;outlineConnect=0;align=center;shape=mxgraph.office.devices.cell_phone_android_proportional;" vertex="1" parent="1">
          <mxGeometry x="990" width="210" height="270" as="geometry" />
        </mxCell>
        <mxCell id="pn8d7jZa_BfOE3druCfX-20" value="" style="verticalLabelPosition=bottom;verticalAlign=top;html=1;shadow=0;dashed=0;strokeWidth=1;shape=mxgraph.android.keyboard;sketch=0;" vertex="1" parent="1">
          <mxGeometry x="1010" y="155" width="170" height="70" as="geometry" />
        </mxCell>
        <mxCell id="pn8d7jZa_BfOE3druCfX-21" value="Пользователь скинул файл&lt;div&gt;&amp;nbsp;который соответствует правилам&lt;/div&gt;&lt;div&gt;&amp;nbsp;и нечего не надо исправлять&lt;/div&gt;" style="whiteSpace=wrap;html=1;rounded=1;strokeColor=#2D7600;strokeWidth=2;align=center;verticalAlign=middle;fontFamily=Helvetica;fontSize=12;fontColor=#ffffff;autosize=1;resizable=0;fillColor=#60a917;gradientColor=none;arcSize=50;" vertex="1" parent="1">
          <mxGeometry x="770" y="65" width="210" height="60" as="geometry" />
        </mxCell>
        <mxCell id="pn8d7jZa_BfOE3druCfX-22" value="&lt;font style=&quot;color: light-dark(rgb(255, 255, 255), rgb(255, 255, 255));&quot;&gt;Пользователь скинул не правильный файл&lt;/font&gt;&lt;div&gt;&lt;font style=&quot;color: light-dark(rgb(255, 255, 255), rgb(255, 255, 255));&quot;&gt;&amp;nbsp;и бот требует скинуть сократить страницы&lt;/font&gt;&lt;/div&gt;&lt;div&gt;&lt;font style=&quot;color: light-dark(rgb(255, 255, 255), rgb(255, 255, 255));&quot;&gt;&amp;nbsp;или поменять его расширение&amp;nbsp;&amp;nbsp;&lt;/font&gt;&lt;/div&gt;" style="text;html=1;align=center;verticalAlign=middle;resizable=0;points=[];autosize=1;strokeColor=#6F0000;fillColor=light-dark(#a20025, #ff003c);fontFamily=Helvetica;fontSize=12;fontColor=#ffffff;rounded=1;" vertex="1" parent="1">
          <mxGeometry x="507" y="313" width="260" height="60" as="geometry" />
        </mxCell>
        <mxCell id="pn8d7jZa_BfOE3druCfX-23" value="" style="group" vertex="1" connectable="0" parent="1">
          <mxGeometry x="40" y="145" width="170" height="90" as="geometry" />
        </mxCell>
        <mxCell id="pn8d7jZa_BfOE3druCfX-24" value="Start" style="rounded=1;whiteSpace=wrap;html=1;" vertex="1" parent="pn8d7jZa_BfOE3druCfX-23">
          <mxGeometry width="170" height="20" as="geometry" />
        </mxCell>
        <mxCell id="pn8d7jZa_BfOE3druCfX-25" value="" style="verticalLabelPosition=bottom;verticalAlign=top;html=1;shadow=0;dashed=0;strokeWidth=1;shape=mxgraph.android.keyboard;sketch=0;" vertex="1" parent="pn8d7jZa_BfOE3druCfX-23">
          <mxGeometry y="20" width="170" height="70" as="geometry" />
        </mxCell>
        <mxCell id="pn8d7jZa_BfOE3druCfX-26" value="Бот временно не работает,&lt;div&gt;&amp;nbsp;просим ваше прощение.&lt;/div&gt;" style="rounded=1;whiteSpace=wrap;html=1;strokeColor=#2D7600;strokeWidth=2;align=center;verticalAlign=middle;fontFamily=Helvetica;fontSize=12;fontColor=#ffffff;autosize=1;resizable=0;fillColor=#60a917;gradientColor=none;" vertex="1" parent="1">
          <mxGeometry x="57" y="495" width="170" height="40" as="geometry" />
        </mxCell>
        <mxCell id="pn8d7jZa_BfOE3druCfX-27" value="ЮР_документ&lt;div&gt;(6 страниц).PDF&lt;/div&gt;" style="whiteSpace=wrap;html=1;rounded=1;strokeColor=#2D7600;strokeWidth=2;align=center;verticalAlign=top;fontFamily=Times New Roman;fontSize=7;fontColor=#ffffff;fontStyle=0;autosize=1;resizable=0;fillColor=#60a917;gradientColor=none;" vertex="1" parent="1">
          <mxGeometry x="516" y="460" width="72" height="40" as="geometry" />
        </mxCell>
        <mxCell id="pn8d7jZa_BfOE3druCfX-28" value="У вас все правильно&lt;div&gt;&amp;nbsp;можете дальше с ним&lt;/div&gt;&lt;div&gt;&amp;nbsp;работать&amp;nbsp;&amp;nbsp;&lt;/div&gt;" style="whiteSpace=wrap;html=1;rounded=1;strokeColor=#2D7600;strokeWidth=2;align=center;verticalAlign=top;fontFamily=Times New Roman;fontSize=10;fontColor=#ffffff;fontStyle=0;autosize=1;resizable=0;fillColor=#60a917;gradientColor=none;direction=west;" vertex="1" parent="1">
          <mxGeometry x="1010" y="87" width="112" height="56" as="geometry" />
        </mxCell>
        <mxCell id="pn8d7jZa_BfOE3druCfX-40" style="edgeStyle=orthogonalEdgeStyle;rounded=0;orthogonalLoop=1;jettySize=auto;html=1;" edge="1" parent="1" source="pn8d7jZa_BfOE3druCfX-29" target="pn8d7jZa_BfOE3druCfX-45">
          <mxGeometry relative="1" as="geometry">
            <mxPoint x="1370" y="515" as="targetPoint" />
          </mxGeometry>
        </mxCell>
        <mxCell id="pn8d7jZa_BfOE3druCfX-51" style="edgeStyle=orthogonalEdgeStyle;rounded=0;orthogonalLoop=1;jettySize=auto;html=1;" edge="1" parent="1" source="pn8d7jZa_BfOE3druCfX-29" target="pn8d7jZa_BfOE3druCfX-50">
          <mxGeometry relative="1" as="geometry" />
        </mxCell>
        <mxCell id="pn8d7jZa_BfOE3druCfX-29" value="" style="sketch=0;pointerEvents=1;shadow=0;dashed=0;html=1;strokeColor=none;fillColor=#505050;labelPosition=center;verticalLabelPosition=bottom;verticalAlign=top;outlineConnect=0;align=center;shape=mxgraph.office.devices.cell_phone_android_proportional;container=0;" vertex="1" parent="1">
          <mxGeometry x="970" y="380" width="210" height="270" as="geometry">
            <mxRectangle x="-827" y="-1135" width="50" height="40" as="alternateBounds" />
          </mxGeometry>
        </mxCell>
        <mxCell id="pn8d7jZa_BfOE3druCfX-31" value="" style="verticalLabelPosition=bottom;verticalAlign=top;html=1;shadow=0;dashed=0;strokeWidth=1;shape=mxgraph.android.keyboard;sketch=0;container=1;" vertex="1" parent="1">
          <mxGeometry x="990" y="540" width="170" height="70" as="geometry" />
        </mxCell>
        <mxCell id="pn8d7jZa_BfOE3druCfX-35" value="Пользователь скинул файл&lt;div&gt;&amp;nbsp;который соответствует правилам, но надо провести правки&amp;nbsp;&lt;/div&gt;" style="rounded=1;whiteSpace=wrap;html=1;fillColor=#60a917;fontColor=#ffffff;strokeColor=#2D7600;" vertex="1" parent="1">
          <mxGeometry x="850" y="280" width="160" height="70" as="geometry" />
        </mxCell>
        <mxCell id="pn8d7jZa_BfOE3druCfX-36" value="Исправить" style="rounded=1;whiteSpace=wrap;html=1;" vertex="1" parent="1">
          <mxGeometry x="990" y="520" width="170" height="20" as="geometry" />
        </mxCell>
        <mxCell id="pn8d7jZa_BfOE3druCfX-42" value="" style="verticalLabelPosition=bottom;verticalAlign=top;html=1;shadow=0;dashed=0;strokeWidth=1;shape=mxgraph.android.keyboard;sketch=0;" vertex="1" parent="1">
          <mxGeometry x="1340" y="151" width="170" height="70" as="geometry" />
        </mxCell>
        <mxCell id="pn8d7jZa_BfOE3druCfX-45" value="" style="sketch=0;pointerEvents=1;shadow=0;dashed=0;html=1;strokeColor=none;fillColor=#505050;labelPosition=center;verticalLabelPosition=bottom;verticalAlign=top;outlineConnect=0;align=center;shape=mxgraph.office.devices.cell_phone_android_proportional;container=0;" vertex="1" parent="1">
          <mxGeometry x="1320" width="210" height="270" as="geometry">
            <mxRectangle x="-827" y="-1135" width="50" height="40" as="alternateBounds" />
          </mxGeometry>
        </mxCell>
        <mxCell id="pn8d7jZa_BfOE3druCfX-46" value="Пользователь нажал кнопку исправить и бот исправил фаил&amp;nbsp;" style="rounded=1;whiteSpace=wrap;html=1;fillColor=#60a917;fontColor=#ffffff;strokeColor=#2D7600;" vertex="1" parent="1">
          <mxGeometry x="1300" y="343" width="120" height="60" as="geometry" />
        </mxCell>
        <mxCell id="pn8d7jZa_BfOE3druCfX-47" value="Файл.txt" style="rounded=1;whiteSpace=wrap;html=1;fillColor=#60a917;fontColor=#ffffff;strokeColor=#2D7600;" vertex="1" parent="1">
          <mxGeometry x="1340" y="91" width="120" height="60" as="geometry" />
        </mxCell>
        <mxCell id="pn8d7jZa_BfOE3druCfX-48" value="" style="verticalLabelPosition=bottom;verticalAlign=top;html=1;shadow=0;dashed=0;strokeWidth=1;shape=mxgraph.android.keyboard;sketch=0;" vertex="1" parent="1">
          <mxGeometry x="1760" y="530" width="170" height="70" as="geometry" />
        </mxCell>
        <mxCell id="pn8d7jZa_BfOE3druCfX-49" value="Фаил.txt" style="rounded=1;whiteSpace=wrap;html=1;fillColor=#60a917;fontColor=#ffffff;strokeColor=#2D7600;" vertex="1" parent="1">
          <mxGeometry x="1770" y="434" width="60" height="26" as="geometry" />
        </mxCell>
        <mxCell id="pn8d7jZa_BfOE3druCfX-50" value="" style="sketch=0;pointerEvents=1;shadow=0;dashed=0;html=1;strokeColor=none;fillColor=#505050;labelPosition=center;verticalLabelPosition=bottom;verticalAlign=top;outlineConnect=0;align=center;shape=mxgraph.office.devices.cell_phone_android_proportional;container=0;" vertex="1" parent="1">
          <mxGeometry x="1740" y="380" width="210" height="270" as="geometry">
            <mxRectangle x="-827" y="-1135" width="50" height="40" as="alternateBounds" />
          </mxGeometry>
        </mxCell>
        <mxCell id="pn8d7jZa_BfOE3druCfX-52" value="Пользователь отказался от автоисправления и решил сам все испарвить, бот напишет на что надо обратить внимание при исправлении" style="rounded=1;whiteSpace=wrap;html=1;fillColor=#60a917;fontColor=#ffffff;strokeColor=#2D7600;" vertex="1" parent="1">
          <mxGeometry x="1480" y="403" width="150" height="111" as="geometry" />
        </mxCell>
        <mxCell id="pn8d7jZa_BfOE3druCfX-53" value="Надо испарвить пунк 1.2 в вашем файле&amp;nbsp;" style="whiteSpace=wrap;html=1;rounded=1;fillColor=#60a917;fontColor=#ffffff;strokeColor=#2D7600;" vertex="1" parent="1">
          <mxGeometry x="1760" y="470" width="120" height="60" as="geometry" />
        </mxCell>
        <mxCell id="pn8d7jZa_BfOE3druCfX-54" value="1" style="text;html=1;align=center;verticalAlign=middle;resizable=0;points=[];autosize=1;strokeColor=none;fillColor=none;" vertex="1" parent="1">
          <mxGeometry x="170" y="18" width="30" height="30" as="geometry" />
        </mxCell>
        <mxCell id="pn8d7jZa_BfOE3druCfX-55" value="2" style="text;html=1;align=center;verticalAlign=middle;resizable=0;points=[];autosize=1;strokeColor=none;fillColor=none;" vertex="1" parent="1">
          <mxGeometry x="170" y="434" width="30" height="30" as="geometry" />
        </mxCell>
        <mxCell id="pn8d7jZa_BfOE3druCfX-56" value="3" style="text;html=1;align=center;verticalAlign=middle;resizable=0;points=[];autosize=1;strokeColor=none;fillColor=none;" vertex="1" parent="1">
          <mxGeometry x="557" y="18" width="30" height="30" as="geometry" />
        </mxCell>
        <mxCell id="pn8d7jZa_BfOE3druCfX-57" value="4" style="text;html=1;align=center;verticalAlign=middle;resizable=0;points=[];autosize=1;strokeColor=none;fillColor=none;" vertex="1" parent="1">
          <mxGeometry x="547" y="427" width="30" height="30" as="geometry" />
        </mxCell>
        <mxCell id="pn8d7jZa_BfOE3druCfX-58" value="5" style="text;html=1;align=center;verticalAlign=middle;resizable=0;points=[];autosize=1;strokeColor=none;fillColor=none;" vertex="1" parent="1">
          <mxGeometry x="1150" y="10" width="30" height="30" as="geometry" />
        </mxCell>
        <mxCell id="pn8d7jZa_BfOE3druCfX-59" value="6" style="text;html=1;align=center;verticalAlign=middle;resizable=0;points=[];autosize=1;strokeColor=none;fillColor=none;" vertex="1" parent="1">
          <mxGeometry x="1133" y="390" width="30" height="30" as="geometry" />
        </mxCell>
        <mxCell id="pn8d7jZa_BfOE3druCfX-60" value="7" style="text;html=1;align=center;verticalAlign=middle;resizable=0;points=[];autosize=1;strokeColor=none;fillColor=none;" vertex="1" parent="1">
          <mxGeometry x="1900" y="390" width="30" height="30" as="geometry" />
        </mxCell>
        <mxCell id="pn8d7jZa_BfOE3druCfX-61" value="8" style="text;html=1;align=center;verticalAlign=middle;resizable=0;points=[];autosize=1;strokeColor=none;fillColor=none;" vertex="1" parent="1">
          <mxGeometry x="1480" y="10" width="30" height="30" as="geometry" />
        </mxCell>
      </root>
    </mxGraphModel>
  </diagram>
</mxfile>
